<?xml version="1.0" standalone="no"?>
<!DOCTYPE svg PUBLIC "-//W3C//DTD SVG 20010904//EN"
 "http://www.w3.org/TR/2001/REC-SVG-20010904/DTD/svg10.dtd">
<svg version="1.0" xmlns="http://www.w3.org/2000/svg"
 width="16.000000pt" height="16.000000pt" viewBox="0 0 16.000000 16.000000"
 preserveAspectRatio="xMidYMid meet">
<metadata>
Created by potrace 1.11, written by Peter Selinger 2001-2013
</metadata>
<g transform="translate(0.000000,16.000000) scale(0.005161,-0.005161)"
fill="#000000" stroke="none">
<path d="M1445 3060 c-38 -3 -92 -16 -119 -28 -27 -12 -54 -22 -60 -22 -21 0
-151 -68 -190 -99 -45 -36 -37 -40 22 -11 54 26 68 25 123 -9 49 -31 47 -24
51 -131 3 -90 -2 -110 -24 -110 -13 0 -30 -5 -38 -10 -12 -8 -11 -10 7 -10 41
0 48 -8 46 -53 -9 -170 -16 -253 -23 -260 -4 -5 -47 -12 -96 -17 -73 -6 -91
-11 -106 -30 -31 -38 -18 -90 22 -90 12 0 17 9 17 30 0 17 7 38 16 48 16 15
17 13 17 -31 l0 -47 78 0 77 0 0 -91 c0 -119 -5 -123 -152 -133 -124 -8 -249
-28 -265 -44 -7 -7 -4 -16 10 -30 l21 -21 3 22 c2 15 13 23 38 28 44 9 50 5
50 -36 0 -21 -6 -35 -16 -39 -9 -4 -14 -9 -11 -12 3 -3 15 -1 26 6 20 10 21 8
22 -37 1 -26 3 -107 4 -179 l4 -131 -57 -56 c-62 -61 -87 -72 -297 -132 -66
-19 -167 -50 -225 -70 -58 -20 -143 -48 -190 -61 -47 -13 -110 -35 -141 -49
-31 -14 -64 -25 -73 -25 -15 0 -16 -49 -16 -545 l0 -545 578 0 577 0 37 148
c21 81 35 127 32 102 -5 -40 -33 -169 -50 -227 l-6 -23 962 0 962 0 -7 43
c-26 166 -82 348 -133 432 -29 50 -122 120 -230 174 -35 17 -98 57 -142 89
-43 31 -106 73 -141 92 -34 19 -92 56 -127 83 -36 26 -90 62 -121 79 -67 38
-112 70 -167 119 -33 29 -39 40 -33 58 5 11 4 21 -1 21 -19 0 -32 146 -14 158
17 11 36 51 29 62 -6 10 40 90 53 90 4 0 8 12 9 28 2 33 18 111 27 133 5 11
15 15 27 12 17 -5 18 -1 15 36 -4 43 -4 43 50 45 20 1 30 -3 27 -10 -2 -7 0
-15 5 -18 6 -3 13 1 16 9 4 11 13 14 29 9 20 -4 28 1 44 28 22 36 41 120 47
210 2 31 6 60 9 65 3 5 11 81 17 169 12 151 11 166 -10 279 -37 196 -113 325
-247 421 -77 55 -129 76 -267 109 -85 21 -298 48 -331 44 -5 -1 -41 -5 -80 -9z
m84 -134 c48 -14 58 -26 45 -54 -4 -9 -6 -23 -5 -29 2 -16 -16 -17 -21 -1 -3
9 -12 9 -36 -1 -38 -16 -108 -9 -130 12 -22 22 -8 63 25 75 39 14 71 14 122
-2z m302 -17 c47 -11 89 -40 89 -62 0 -7 -6 -23 -13 -37 -14 -26 -17 -184 -4
-196 3 -3 23 -10 44 -14 29 -7 42 -6 53 5 11 12 12 15 1 15 -8 0 2 13 20 30
37 33 46 35 83 20 29 -11 42 -31 51 -83 7 -36 7 -37 -23 -37 -17 0 -57 7 -89
15 -31 8 -86 15 -121 15 -56 0 -63 -2 -52 -15 7 -8 9 -15 4 -15 -5 0 -10 -27
-12 -60 -1 -44 1 -59 10 -58 13 3 14 -5 3 -34 -4 -10 1 -24 15 -38 11 -11 19
-24 16 -28 -3 -5 -1 -14 5 -22 7 -13 9 -12 9 3 0 9 4 17 9 17 5 0 7 9 4 20 -3
11 -1 20 5 20 5 0 12 10 15 21 5 20 10 21 54 15 81 -11 145 -36 140 -55 -3 -9
-11 -37 -18 -63 -19 -70 -33 -73 -220 -48 -207 28 -338 54 -354 71 -8 8 -15
41 -17 73 -2 48 -7 62 -25 74 -28 18 -30 36 -4 27 23 -7 33 15 33 81 l1 44 91
1 91 1 -70 12 c-70 13 -155 49 -155 68 0 5 8 12 18 15 20 6 78 119 75 146 -2
9 2 17 7 17 6 0 10 8 10 17 0 9 3 13 7 10 3 -4 11 -2 18 3 18 15 87 29 120 24
17 -3 51 -10 76 -15z m281 -386 l48 -14 -6 -57 c-4 -31 -7 -58 -8 -59 -5 -6
-154 31 -176 42 -14 8 -20 14 -14 15 7 0 10 16 9 40 -2 28 2 40 11 40 8 0 14
4 14 9 0 12 59 4 122 -16z m-400 -374 c39 -9 53 -9 56 0 5 16 22 14 22 -3 0
-13 57 -29 180 -51 19 -3 49 -12 65 -20 l30 -13 -27 -1 c-16 -1 -28 -5 -28
-10 0 -15 -72 -91 -87 -91 -7 0 -13 -3 -13 -7 0 -5 -18 -16 -39 -27 -36 -17
-47 -17 -117 -7 -43 6 -85 18 -94 26 -9 8 -25 15 -36 15 -27 0 -48 16 -40 29
4 6 3 11 -3 11 -11 0 -27 57 -30 104 0 16 -9 35 -19 42 -15 12 -7 13 55 14 40
0 96 -5 125 -11z m485 -71 c-3 -8 -6 -5 -6 6 -1 11 2 17 5 13 3 -3 4 -12 1
-19z m-884 -145 c-7 -2 -19 -2 -25 0 -7 3 -2 5 12 5 14 0 19 -2 13 -5z m127
-11 c0 -11 -66 -42 -90 -42 -11 0 -20 -5 -20 -11 0 -5 -4 -7 -10 -4 -5 3 -10
1 -10 -5 0 -6 -4 -8 -10 -5 -17 11 -11 43 12 59 23 17 128 23 128 8z m220 -7
c68 -9 79 -19 49 -44 -13 -11 -32 -20 -42 -21 -10 0 -15 -4 -12 -10 13 -21
-31 5 -63 37 -36 35 -35 56 1 49 12 -3 42 -8 67 -11z m218 -45 c2 0 0 -5 -4
-12 -5 -8 -2 -9 9 -5 11 4 17 1 17 -8 0 -18 16 -20 23 -2 3 6 4 -1 2 -18 -2
-27 -6 -30 -31 -27 -16 2 -34 8 -41 14 -9 7 -13 7 -13 -1 0 -25 -17 -9 -28 26
-14 47 -9 54 31 42 17 -5 33 -9 35 -9z m-381 -36 c-3 -3 -12 -4 -19 -1 -8 3
-5 6 6 6 11 1 17 -2 13 -5z m143 -73 c16 -4 21 -9 13 -14 -7 -4 -10 -13 -7
-20 3 -9 -8 -13 -36 -14 -38 -2 -40 0 -40 28 0 31 15 35 70 20z m-47 -148 c54
-7 55 -13 4 -18 -23 -2 -45 4 -63 17 -18 13 -22 18 -9 13 11 -3 41 -9 68 -12z
m-39 -85 c57 -11 57 -11 29 -23 -31 -13 -68 -13 -80 0 -5 4 -2 5 5 1 6 -4 12
-3 12 2 0 5 -10 14 -22 20 -30 14 -13 14 56 0z m-79 -8 c3 -5 -1 -10 -9 -10
-8 0 -18 5 -21 10 -3 6 1 10 9 10 8 0 18 -4 21 -10z m165 -30 c-19 -13 -30
-13 -30 0 0 6 10 10 23 10 18 0 19 -2 7 -10z m-149 -29 c2 2 13 -2 24 -9 18
-10 17 -11 -12 -12 -34 0 -49 13 -37 31 5 8 9 8 14 -1 4 -6 9 -10 11 -9z m122
-14 c-2 -4 -3 -12 -3 -17 0 -6 -12 -9 -27 -6 -16 2 -32 5 -38 5 -5 1 -1 8 9
16 18 14 64 15 59 2z m-473 -827 c0 -5 -5 -10 -11 -10 -5 0 -7 5 -4 10 3 6 8
10 11 10 2 0 4 -4 4 -10z m223 -77 c-5 -13 -1 -15 22 -11 16 3 36 2 44 -2 36
-18 77 -34 97 -37 18 -3 23 3 29 34 6 32 8 35 17 19 7 -12 7 -21 -1 -29 -14
-14 -14 -27 -1 -27 6 0 10 7 10 15 0 22 38 18 45 -5 3 -11 9 -19 13 -19 34 5
51 -27 26 -46 -19 -13 -10 -40 9 -28 15 8 -7 -21 -47 -64 -16 -18 -34 -29 -40
-26 -6 3 -8 2 -3 -2 9 -11 -23 -46 -35 -39 -4 3 -7 0 -6 -6 2 -7 -19 -27 -46
-46 -76 -53 -111 -46 -182 37 -42 51 -44 69 -1 23 21 -22 24 -23 26 -7 7 61
-1 139 -19 180 -11 25 -20 52 -20 59 0 21 20 17 21 -3 0 -15 2 -15 9 2 5 11
11 28 14 38 3 10 10 16 15 12 6 -3 7 -13 4 -22z m97 7 c0 -5 -5 -10 -11 -10
-5 0 -7 5 -4 10 3 6 8 10 11 10 2 0 4 -4 4 -10z m-210 -180 c0 -5 -4 -10 -10
-10 -5 0 -10 5 -10 10 0 6 5 10 10 10 6 0 10 -4 10 -10z m-13 -62 c-3 -7 -5
-2 -5 12 0 14 2 19 5 13 2 -7 2 -19 0 -25z m1103 -68 c0 -5 -4 -10 -10 -10 -5
0 -10 5 -10 10 0 6 5 10 10 10 6 0 10 -4 10 -10z m-34 -29 c21 -17 23 -31 3
-31 -11 0 -39 30 -39 41 0 14 9 11 36 -10z"/>
<path d="M1750 2600 c14 -4 34 -8 45 -8 l20 -1 -20 9 c-11 5 -31 8 -45 8 l-25
0 25 -8z"/>
<path d="M1828 2583 c7 -3 16 -2 19 1 4 3 -2 6 -13 5 -11 0 -14 -3 -6 -6z"/>
<path d="M1457 303 c-4 -3 -7 -11 -7 -17 0 -6 5 -5 12 2 6 6 9 14 7 17 -3 3
-9 2 -12 -2z"/>
<path d="M840 2339 c0 -11 5 -17 10 -14 6 3 10 13 10 21 0 8 -4 14 -10 14 -5
0 -10 -9 -10 -21z"/>
<path d="M820 2210 c-7 -95 -7 -101 2 -92 5 5 7 38 5 73 -3 56 -4 59 -7 19z"/>
<path d="M839 2125 c-12 -20 -17 -61 -9 -80 6 -17 9 -14 15 17 7 39 3 80 -6
63z"/>
</g>
</svg>
